<mxfile host="Electron" modified="2025-04-16T22:20:19.265Z" agent="Mozilla/5.0 (X11; Linux x86_64) AppleWebKit/537.36 (KHTML, like Gecko) draw.io/22.1.2 Chrome/114.0.5735.289 Electron/25.9.4 Safari/537.36" etag="v3nu2NyhPKNVCewShhaZ" version="22.1.2" type="device">
  <diagram name="Page-1" id="J8fZc90PBT1qO0DWgf4Q">
    <mxGraphModel dx="1195" dy="809" grid="1" gridSize="10" guides="1" tooltips="1" connect="1" arrows="1" fold="1" page="1" pageScale="1" pageWidth="827" pageHeight="1169" math="0" shadow="0">
      <root>
        <mxCell id="0" />
        <mxCell id="1" parent="0" />
        <mxCell id="WSWHWqj17P2bj2SfIeIW-4" style="edgeStyle=orthogonalEdgeStyle;rounded=0;orthogonalLoop=1;jettySize=auto;html=1;" edge="1" parent="1" source="WSWHWqj17P2bj2SfIeIW-2" target="WSWHWqj17P2bj2SfIeIW-3">
          <mxGeometry relative="1" as="geometry" />
        </mxCell>
        <mxCell id="WSWHWqj17P2bj2SfIeIW-5" value="! GET /sets" style="edgeLabel;html=1;align=center;verticalAlign=middle;resizable=0;points=[];" vertex="1" connectable="0" parent="WSWHWqj17P2bj2SfIeIW-4">
          <mxGeometry x="0.0202" relative="1" as="geometry">
            <mxPoint y="5" as="offset" />
          </mxGeometry>
        </mxCell>
        <mxCell id="WSWHWqj17P2bj2SfIeIW-2" value="I" style="ellipse;shape=doubleEllipse;whiteSpace=wrap;html=1;aspect=fixed;fontSize=16;" vertex="1" parent="1">
          <mxGeometry x="660" y="790" width="60" height="60" as="geometry" />
        </mxCell>
        <mxCell id="WSWHWqj17P2bj2SfIeIW-12" value="" style="edgeStyle=orthogonalEdgeStyle;rounded=0;orthogonalLoop=1;jettySize=auto;html=1;" edge="1" parent="1" source="WSWHWqj17P2bj2SfIeIW-3" target="WSWHWqj17P2bj2SfIeIW-10">
          <mxGeometry relative="1" as="geometry" />
        </mxCell>
        <mxCell id="WSWHWqj17P2bj2SfIeIW-13" value="? Sets" style="edgeLabel;html=1;align=center;verticalAlign=middle;resizable=0;points=[];labelBackgroundColor=default;" vertex="1" connectable="0" parent="WSWHWqj17P2bj2SfIeIW-12">
          <mxGeometry x="0.1033" y="-1" relative="1" as="geometry">
            <mxPoint x="-2" y="7" as="offset" />
          </mxGeometry>
        </mxCell>
        <mxCell id="WSWHWqj17P2bj2SfIeIW-3" value="S1" style="ellipse;whiteSpace=wrap;html=1;aspect=fixed;fontSize=16;" vertex="1" parent="1">
          <mxGeometry x="660" y="670" width="60" height="60" as="geometry" />
        </mxCell>
        <mxCell id="WSWHWqj17P2bj2SfIeIW-9" value="S2.1" style="ellipse;whiteSpace=wrap;html=1;aspect=fixed;fontSize=16;" vertex="1" parent="1">
          <mxGeometry x="660" y="440" width="60" height="60" as="geometry" />
        </mxCell>
        <mxCell id="WSWHWqj17P2bj2SfIeIW-17" value="" style="edgeStyle=orthogonalEdgeStyle;rounded=0;orthogonalLoop=1;jettySize=auto;html=1;exitX=0;exitY=0;exitDx=0;exitDy=0;entryX=0.5;entryY=1;entryDx=0;entryDy=0;" edge="1" parent="1" source="WSWHWqj17P2bj2SfIeIW-10" target="WSWHWqj17P2bj2SfIeIW-16">
          <mxGeometry relative="1" as="geometry">
            <mxPoint x="660" y="555" as="sourcePoint" />
            <mxPoint x="590" y="350" as="targetPoint" />
          </mxGeometry>
        </mxCell>
        <mxCell id="WSWHWqj17P2bj2SfIeIW-18" value="! GET&lt;br&gt;/open-booster/:id" style="edgeLabel;html=1;align=center;verticalAlign=middle;resizable=0;points=[];" vertex="1" connectable="0" parent="WSWHWqj17P2bj2SfIeIW-17">
          <mxGeometry x="-0.2889" y="3" relative="1" as="geometry">
            <mxPoint x="3" y="-127" as="offset" />
          </mxGeometry>
        </mxCell>
        <mxCell id="WSWHWqj17P2bj2SfIeIW-20" style="edgeStyle=orthogonalEdgeStyle;rounded=0;orthogonalLoop=1;jettySize=auto;html=1;entryX=0.5;entryY=1;entryDx=0;entryDy=0;exitX=1;exitY=0;exitDx=0;exitDy=0;" edge="1" parent="1" source="WSWHWqj17P2bj2SfIeIW-10" target="WSWHWqj17P2bj2SfIeIW-19">
          <mxGeometry relative="1" as="geometry" />
        </mxCell>
        <mxCell id="WSWHWqj17P2bj2SfIeIW-21" value="! GET &lt;br&gt;/set/cards/:id" style="edgeLabel;html=1;align=center;verticalAlign=middle;resizable=0;points=[];" vertex="1" connectable="0" parent="WSWHWqj17P2bj2SfIeIW-20">
          <mxGeometry x="-0.2" y="-1" relative="1" as="geometry">
            <mxPoint x="1" y="-117" as="offset" />
          </mxGeometry>
        </mxCell>
        <mxCell id="WSWHWqj17P2bj2SfIeIW-10" value="S2" style="ellipse;shape=doubleEllipse;whiteSpace=wrap;html=1;aspect=fixed;fontSize=16;" vertex="1" parent="1">
          <mxGeometry x="660" y="555" width="60" height="60" as="geometry" />
        </mxCell>
        <mxCell id="WSWHWqj17P2bj2SfIeIW-11" value="" style="endArrow=classic;html=1;rounded=0;entryX=0.5;entryY=1;entryDx=0;entryDy=0;" edge="1" parent="1" target="WSWHWqj17P2bj2SfIeIW-2">
          <mxGeometry width="50" height="50" relative="1" as="geometry">
            <mxPoint x="690" y="890" as="sourcePoint" />
            <mxPoint x="400" y="580" as="targetPoint" />
          </mxGeometry>
        </mxCell>
        <mxCell id="WSWHWqj17P2bj2SfIeIW-38" style="edgeStyle=orthogonalEdgeStyle;rounded=0;orthogonalLoop=1;jettySize=auto;html=1;" edge="1" parent="1" source="WSWHWqj17P2bj2SfIeIW-16" target="WSWHWqj17P2bj2SfIeIW-37">
          <mxGeometry relative="1" as="geometry" />
        </mxCell>
        <mxCell id="WSWHWqj17P2bj2SfIeIW-39" value="? Booster cards" style="edgeLabel;html=1;align=center;verticalAlign=middle;resizable=0;points=[];fontSize=10;" vertex="1" connectable="0" parent="WSWHWqj17P2bj2SfIeIW-38">
          <mxGeometry x="0.1029" y="-3" relative="1" as="geometry">
            <mxPoint x="-3" y="8" as="offset" />
          </mxGeometry>
        </mxCell>
        <mxCell id="WSWHWqj17P2bj2SfIeIW-16" value="S2.2" style="ellipse;whiteSpace=wrap;html=1;aspect=fixed;fontSize=16;" vertex="1" parent="1">
          <mxGeometry x="570" y="310" width="60" height="60" as="geometry" />
        </mxCell>
        <mxCell id="WSWHWqj17P2bj2SfIeIW-44" style="edgeStyle=orthogonalEdgeStyle;rounded=0;orthogonalLoop=1;jettySize=auto;html=1;entryX=0.5;entryY=1;entryDx=0;entryDy=0;" edge="1" parent="1" source="WSWHWqj17P2bj2SfIeIW-19" target="WSWHWqj17P2bj2SfIeIW-40">
          <mxGeometry relative="1" as="geometry" />
        </mxCell>
        <mxCell id="WSWHWqj17P2bj2SfIeIW-45" value="? Set cards" style="edgeLabel;html=1;align=center;verticalAlign=middle;resizable=0;points=[];" vertex="1" connectable="0" parent="WSWHWqj17P2bj2SfIeIW-44">
          <mxGeometry x="0.2089" relative="1" as="geometry">
            <mxPoint y="10" as="offset" />
          </mxGeometry>
        </mxCell>
        <mxCell id="WSWHWqj17P2bj2SfIeIW-19" value="S2.3" style="ellipse;whiteSpace=wrap;html=1;aspect=fixed;fontSize=16;" vertex="1" parent="1">
          <mxGeometry x="760" y="310" width="60" height="60" as="geometry" />
        </mxCell>
        <mxCell id="WSWHWqj17P2bj2SfIeIW-26" value="S3.2" style="ellipse;whiteSpace=wrap;html=1;aspect=fixed;fontSize=16;" vertex="1" parent="1">
          <mxGeometry x="750" y="30" width="60" height="60" as="geometry" />
        </mxCell>
        <mxCell id="WSWHWqj17P2bj2SfIeIW-27" value="S3.1" style="ellipse;whiteSpace=wrap;html=1;aspect=fixed;fontSize=16;" vertex="1" parent="1">
          <mxGeometry x="570" y="30" width="60" height="60" as="geometry" />
        </mxCell>
        <mxCell id="WSWHWqj17P2bj2SfIeIW-28" value="S3.3" style="ellipse;whiteSpace=wrap;html=1;aspect=fixed;fontSize=16;" vertex="1" parent="1">
          <mxGeometry x="460" y="30" width="60" height="60" as="geometry" />
        </mxCell>
        <mxCell id="WSWHWqj17P2bj2SfIeIW-37" value="S2.2.1" style="ellipse;whiteSpace=wrap;html=1;aspect=fixed;fontSize=16;" vertex="1" parent="1">
          <mxGeometry x="570" y="200" width="60" height="60" as="geometry" />
        </mxCell>
        <mxCell id="WSWHWqj17P2bj2SfIeIW-40" value="S2.3.1" style="ellipse;whiteSpace=wrap;html=1;aspect=fixed;fontSize=16;" vertex="1" parent="1">
          <mxGeometry x="760" y="200" width="60" height="60" as="geometry" />
        </mxCell>
        <mxCell id="WSWHWqj17P2bj2SfIeIW-46" value="" style="endArrow=classic;html=1;rounded=0;endSize=2;exitX=1;exitY=0.5;exitDx=0;exitDy=0;entryX=0.167;entryY=0.083;entryDx=0;entryDy=0;entryPerimeter=0;" edge="1" parent="1" source="WSWHWqj17P2bj2SfIeIW-16" target="WSWHWqj17P2bj2SfIeIW-10">
          <mxGeometry width="50" height="50" relative="1" as="geometry">
            <mxPoint x="590" y="420" as="sourcePoint" />
            <mxPoint x="640" y="370" as="targetPoint" />
            <Array as="points">
              <mxPoint x="650" y="340" />
              <mxPoint x="650" y="440" />
              <mxPoint x="610" y="440" />
              <mxPoint x="610" y="540" />
            </Array>
          </mxGeometry>
        </mxCell>
        <mxCell id="WSWHWqj17P2bj2SfIeIW-49" value="? Error" style="edgeLabel;html=1;align=center;verticalAlign=middle;resizable=0;points=[];fontSize=10;" vertex="1" connectable="0" parent="WSWHWqj17P2bj2SfIeIW-46">
          <mxGeometry x="-0.5999" y="1" relative="1" as="geometry">
            <mxPoint x="-4" y="-5" as="offset" />
          </mxGeometry>
        </mxCell>
        <mxCell id="WSWHWqj17P2bj2SfIeIW-48" value="" style="endArrow=classic;html=1;rounded=0;endSize=2;exitX=0;exitY=0.5;exitDx=0;exitDy=0;entryX=0.833;entryY=0.083;entryDx=0;entryDy=0;entryPerimeter=0;" edge="1" parent="1" source="WSWHWqj17P2bj2SfIeIW-19" target="WSWHWqj17P2bj2SfIeIW-10">
          <mxGeometry width="50" height="50" relative="1" as="geometry">
            <mxPoint x="590" y="420" as="sourcePoint" />
            <mxPoint x="640" y="370" as="targetPoint" />
            <Array as="points">
              <mxPoint x="740" y="340" />
              <mxPoint x="740" y="440" />
              <mxPoint x="780" y="440" />
              <mxPoint x="780" y="540" />
            </Array>
          </mxGeometry>
        </mxCell>
        <mxCell id="WSWHWqj17P2bj2SfIeIW-50" value="? Error" style="edgeLabel;html=1;align=center;verticalAlign=middle;resizable=0;points=[];fontSize=10;" vertex="1" connectable="0" parent="WSWHWqj17P2bj2SfIeIW-48">
          <mxGeometry x="-0.5656" y="-2" relative="1" as="geometry">
            <mxPoint y="-12" as="offset" />
          </mxGeometry>
        </mxCell>
        <mxCell id="WSWHWqj17P2bj2SfIeIW-51" value="" style="endArrow=classic;html=1;rounded=0;endSize=2;exitX=0;exitY=0.5;exitDx=0;exitDy=0;entryX=0.013;entryY=0.423;entryDx=0;entryDy=0;entryPerimeter=0;" edge="1" parent="1" source="WSWHWqj17P2bj2SfIeIW-37" target="WSWHWqj17P2bj2SfIeIW-10">
          <mxGeometry width="50" height="50" relative="1" as="geometry">
            <mxPoint x="590" y="250" as="sourcePoint" />
            <mxPoint x="640" y="200" as="targetPoint" />
            <Array as="points">
              <mxPoint x="550" y="230" />
              <mxPoint x="550" y="580" />
            </Array>
          </mxGeometry>
        </mxCell>
        <mxCell id="WSWHWqj17P2bj2SfIeIW-52" value="Make an action &lt;br style=&quot;font-size: 10px;&quot;&gt;about sets" style="edgeLabel;html=1;align=center;verticalAlign=middle;resizable=0;points=[];fontSize=10;" vertex="1" connectable="0" parent="WSWHWqj17P2bj2SfIeIW-51">
          <mxGeometry x="-0.7468" y="-2" relative="1" as="geometry">
            <mxPoint x="-38" y="-21" as="offset" />
          </mxGeometry>
        </mxCell>
        <mxCell id="WSWHWqj17P2bj2SfIeIW-53" value="" style="endArrow=classic;html=1;rounded=0;endSize=2;exitX=1;exitY=0.5;exitDx=0;exitDy=0;entryX=0.982;entryY=0.352;entryDx=0;entryDy=0;entryPerimeter=0;" edge="1" parent="1" source="WSWHWqj17P2bj2SfIeIW-40" target="WSWHWqj17P2bj2SfIeIW-10">
          <mxGeometry width="50" height="50" relative="1" as="geometry">
            <mxPoint x="590" y="360" as="sourcePoint" />
            <mxPoint x="640" y="310" as="targetPoint" />
            <Array as="points">
              <mxPoint x="840" y="230" />
              <mxPoint x="840" y="576" />
            </Array>
          </mxGeometry>
        </mxCell>
        <mxCell id="WSWHWqj17P2bj2SfIeIW-54" value="Make an action&lt;br style=&quot;border-color: var(--border-color); font-size: 10px;&quot;&gt;&lt;span style=&quot;font-size: 10px;&quot;&gt;about sets&lt;/span&gt;" style="edgeLabel;html=1;align=center;verticalAlign=middle;resizable=0;points=[];fontSize=10;" vertex="1" connectable="0" parent="WSWHWqj17P2bj2SfIeIW-53">
          <mxGeometry x="-0.7873" y="-2" relative="1" as="geometry">
            <mxPoint x="42" y="-12" as="offset" />
          </mxGeometry>
        </mxCell>
        <mxCell id="WSWHWqj17P2bj2SfIeIW-55" value="S3" style="ellipse;whiteSpace=wrap;html=1;aspect=fixed;fontSize=16;" vertex="1" parent="1">
          <mxGeometry x="660" y="120" width="60" height="60" as="geometry" />
        </mxCell>
        <mxCell id="WSWHWqj17P2bj2SfIeIW-56" value="" style="endArrow=classic;html=1;rounded=0;exitX=1;exitY=0;exitDx=0;exitDy=0;entryX=0;entryY=1;entryDx=0;entryDy=0;" edge="1" parent="1" source="WSWHWqj17P2bj2SfIeIW-37" target="WSWHWqj17P2bj2SfIeIW-55">
          <mxGeometry width="50" height="50" relative="1" as="geometry">
            <mxPoint x="590" y="190" as="sourcePoint" />
            <mxPoint x="640" y="140" as="targetPoint" />
          </mxGeometry>
        </mxCell>
        <mxCell id="WSWHWqj17P2bj2SfIeIW-57" value="Make an action &lt;br style=&quot;font-size: 10px;&quot;&gt;about cards" style="edgeLabel;html=1;align=center;verticalAlign=middle;resizable=0;points=[];fontSize=10;labelBackgroundColor=none;" vertex="1" connectable="0" parent="WSWHWqj17P2bj2SfIeIW-56">
          <mxGeometry x="0.2328" y="-1" relative="1" as="geometry">
            <mxPoint x="-31" y="-17" as="offset" />
          </mxGeometry>
        </mxCell>
        <mxCell id="WSWHWqj17P2bj2SfIeIW-58" value="" style="endArrow=classic;html=1;rounded=0;entryX=1;entryY=1;entryDx=0;entryDy=0;" edge="1" parent="1" source="WSWHWqj17P2bj2SfIeIW-40" target="WSWHWqj17P2bj2SfIeIW-55">
          <mxGeometry width="50" height="50" relative="1" as="geometry">
            <mxPoint x="631" y="219" as="sourcePoint" />
            <mxPoint x="679" y="181" as="targetPoint" />
          </mxGeometry>
        </mxCell>
        <mxCell id="WSWHWqj17P2bj2SfIeIW-59" value="Make an action &lt;br style=&quot;font-size: 10px;&quot;&gt;about cards" style="edgeLabel;html=1;align=center;verticalAlign=middle;resizable=0;points=[];fontSize=10;labelBackgroundColor=none;" vertex="1" connectable="0" parent="WSWHWqj17P2bj2SfIeIW-58">
          <mxGeometry x="0.2328" y="-1" relative="1" as="geometry">
            <mxPoint x="28" y="-14" as="offset" />
          </mxGeometry>
        </mxCell>
        <mxCell id="WSWHWqj17P2bj2SfIeIW-60" value="" style="endArrow=classic;html=1;rounded=0;exitX=0;exitY=0;exitDx=0;exitDy=0;entryX=1;entryY=1;entryDx=0;entryDy=0;" edge="1" parent="1" source="WSWHWqj17P2bj2SfIeIW-55" target="WSWHWqj17P2bj2SfIeIW-27">
          <mxGeometry width="50" height="50" relative="1" as="geometry">
            <mxPoint x="631" y="219" as="sourcePoint" />
            <mxPoint x="679" y="181" as="targetPoint" />
          </mxGeometry>
        </mxCell>
        <mxCell id="WSWHWqj17P2bj2SfIeIW-61" value="! GET /card/:id" style="edgeLabel;html=1;align=center;verticalAlign=middle;resizable=0;points=[];fontSize=10;labelBackgroundColor=none;" vertex="1" connectable="0" parent="WSWHWqj17P2bj2SfIeIW-60">
          <mxGeometry x="0.2328" y="-1" relative="1" as="geometry">
            <mxPoint x="-30" y="11" as="offset" />
          </mxGeometry>
        </mxCell>
        <mxCell id="WSWHWqj17P2bj2SfIeIW-62" value="" style="endArrow=classic;html=1;rounded=0;exitX=1;exitY=0;exitDx=0;exitDy=0;entryX=0;entryY=1;entryDx=0;entryDy=0;" edge="1" parent="1" source="WSWHWqj17P2bj2SfIeIW-55" target="WSWHWqj17P2bj2SfIeIW-26">
          <mxGeometry width="50" height="50" relative="1" as="geometry">
            <mxPoint x="679" y="139" as="sourcePoint" />
            <mxPoint x="631" y="91" as="targetPoint" />
          </mxGeometry>
        </mxCell>
        <mxCell id="WSWHWqj17P2bj2SfIeIW-63" value="! GET /card/evolution/:id" style="edgeLabel;html=1;align=center;verticalAlign=middle;resizable=0;points=[];fontSize=10;labelBackgroundColor=none;" vertex="1" connectable="0" parent="WSWHWqj17P2bj2SfIeIW-62">
          <mxGeometry x="0.2328" y="-1" relative="1" as="geometry">
            <mxPoint x="43" y="15" as="offset" />
          </mxGeometry>
        </mxCell>
        <mxCell id="WSWHWqj17P2bj2SfIeIW-64" value="" style="endArrow=classic;html=1;rounded=0;exitX=0;exitY=0;exitDx=0;exitDy=0;entryX=0.728;entryY=0.951;entryDx=0;entryDy=0;entryPerimeter=0;" edge="1" parent="1" source="WSWHWqj17P2bj2SfIeIW-37" target="WSWHWqj17P2bj2SfIeIW-28">
          <mxGeometry width="50" height="50" relative="1" as="geometry">
            <mxPoint x="679" y="139" as="sourcePoint" />
            <mxPoint x="631" y="91" as="targetPoint" />
          </mxGeometry>
        </mxCell>
        <mxCell id="WSWHWqj17P2bj2SfIeIW-65" value="! POST &lt;br&gt;/deck-price {deck}" style="edgeLabel;html=1;align=center;verticalAlign=middle;resizable=0;points=[];fontSize=10;labelBackgroundColor=none;" vertex="1" connectable="0" parent="WSWHWqj17P2bj2SfIeIW-64">
          <mxGeometry x="0.2328" y="-1" relative="1" as="geometry">
            <mxPoint x="-38" y="11" as="offset" />
          </mxGeometry>
        </mxCell>
        <mxCell id="WSWHWqj17P2bj2SfIeIW-66" style="edgeStyle=orthogonalEdgeStyle;rounded=0;orthogonalLoop=1;jettySize=auto;html=1;entryX=1;entryY=0.642;entryDx=0;entryDy=0;entryPerimeter=0;endSize=2;" edge="1" parent="1" source="WSWHWqj17P2bj2SfIeIW-26" target="WSWHWqj17P2bj2SfIeIW-10">
          <mxGeometry relative="1" as="geometry">
            <Array as="points">
              <mxPoint x="920" y="60" />
              <mxPoint x="920" y="594" />
            </Array>
          </mxGeometry>
        </mxCell>
        <mxCell id="WSWHWqj17P2bj2SfIeIW-67" value="? Evolutions / ?&amp;nbsp; Error" style="edgeLabel;html=1;align=center;verticalAlign=middle;resizable=0;points=[];fontSize=10;" vertex="1" connectable="0" parent="WSWHWqj17P2bj2SfIeIW-66">
          <mxGeometry x="-0.7589" y="1" relative="1" as="geometry">
            <mxPoint x="-52" y="-9" as="offset" />
          </mxGeometry>
        </mxCell>
        <mxCell id="WSWHWqj17P2bj2SfIeIW-68" style="edgeStyle=orthogonalEdgeStyle;rounded=0;orthogonalLoop=1;jettySize=auto;html=1;entryX=-0.014;entryY=0.614;entryDx=0;entryDy=0;entryPerimeter=0;endSize=2;" edge="1" parent="1" source="WSWHWqj17P2bj2SfIeIW-28" target="WSWHWqj17P2bj2SfIeIW-10">
          <mxGeometry relative="1" as="geometry">
            <Array as="points">
              <mxPoint x="430" y="60" />
              <mxPoint x="430" y="592" />
            </Array>
          </mxGeometry>
        </mxCell>
        <mxCell id="WSWHWqj17P2bj2SfIeIW-69" value="? Total price / &lt;br&gt;? Error" style="edgeLabel;html=1;align=center;verticalAlign=middle;resizable=0;points=[];fontSize=10;" vertex="1" connectable="0" parent="WSWHWqj17P2bj2SfIeIW-68">
          <mxGeometry x="-0.8247" y="-3" relative="1" as="geometry">
            <mxPoint y="-55" as="offset" />
          </mxGeometry>
        </mxCell>
        <mxCell id="WSWHWqj17P2bj2SfIeIW-70" style="edgeStyle=orthogonalEdgeStyle;rounded=0;orthogonalLoop=1;jettySize=auto;html=1;endSize=2;entryX=0.033;entryY=0.75;entryDx=0;entryDy=0;entryPerimeter=0;" edge="1" parent="1" source="WSWHWqj17P2bj2SfIeIW-27" target="WSWHWqj17P2bj2SfIeIW-10">
          <mxGeometry relative="1" as="geometry">
            <mxPoint x="640" y="600" as="targetPoint" />
            <Array as="points">
              <mxPoint x="600" y="10" />
              <mxPoint x="370" y="10" />
              <mxPoint x="370" y="600" />
            </Array>
          </mxGeometry>
        </mxCell>
        <mxCell id="WSWHWqj17P2bj2SfIeIW-71" value="? Card / ? Error" style="edgeLabel;html=1;align=center;verticalAlign=middle;resizable=0;points=[];fontSize=10;" vertex="1" connectable="0" parent="WSWHWqj17P2bj2SfIeIW-70">
          <mxGeometry x="-0.9346" y="1" relative="1" as="geometry">
            <mxPoint x="57" y="7" as="offset" />
          </mxGeometry>
        </mxCell>
        <mxCell id="WSWHWqj17P2bj2SfIeIW-74" value="" style="endArrow=classic;html=1;rounded=0;exitX=0.688;exitY=0.018;exitDx=0;exitDy=0;exitPerimeter=0;entryX=1;entryY=1;entryDx=0;entryDy=0;endSize=2;" edge="1" parent="1" source="WSWHWqj17P2bj2SfIeIW-10" target="WSWHWqj17P2bj2SfIeIW-9">
          <mxGeometry width="50" height="50" relative="1" as="geometry">
            <mxPoint x="620" y="490" as="sourcePoint" />
            <mxPoint x="670" y="440" as="targetPoint" />
          </mxGeometry>
        </mxCell>
        <mxCell id="WSWHWqj17P2bj2SfIeIW-75" value="! GET /set/:id" style="edgeLabel;html=1;align=center;verticalAlign=middle;resizable=0;points=[];fontSize=10;" vertex="1" connectable="0" parent="WSWHWqj17P2bj2SfIeIW-74">
          <mxGeometry x="0.1622" relative="1" as="geometry">
            <mxPoint x="20" y="1" as="offset" />
          </mxGeometry>
        </mxCell>
        <mxCell id="WSWHWqj17P2bj2SfIeIW-76" value="" style="endArrow=classic;html=1;rounded=0;endSize=2;entryX=0.243;entryY=0.041;entryDx=0;entryDy=0;entryPerimeter=0;exitX=0;exitY=1;exitDx=0;exitDy=0;" edge="1" parent="1" source="WSWHWqj17P2bj2SfIeIW-9" target="WSWHWqj17P2bj2SfIeIW-10">
          <mxGeometry width="50" height="50" relative="1" as="geometry">
            <mxPoint x="650" y="510" as="sourcePoint" />
            <mxPoint x="670" y="440" as="targetPoint" />
          </mxGeometry>
        </mxCell>
        <mxCell id="WSWHWqj17P2bj2SfIeIW-77" value="? Set / ? Error" style="edgeLabel;html=1;align=center;verticalAlign=middle;resizable=0;points=[];fontSize=10;" vertex="1" connectable="0" parent="WSWHWqj17P2bj2SfIeIW-76">
          <mxGeometry x="-0.2194" y="1" relative="1" as="geometry">
            <mxPoint x="-19" y="2" as="offset" />
          </mxGeometry>
        </mxCell>
      </root>
    </mxGraphModel>
  </diagram>
</mxfile>
